<svg xmlns="http://www.w3.org/2000/svg" width="22" height="22.02" viewBox="0 0 286.76532 287.04001"><g clip-path="url(#magnifier_icon)" transform="matrix(1.33333 0 0 -1.33333 0 287.04)" fill="#80b145"><path d="M77.637 80.139c31.375-.082 57.29 25.736 57.376 57.164.087 31.59-25.529 57.569-56.842 57.647-31.983.079-57.806-25.436-57.9-57.21-.095-31.646 25.672-57.518 57.366-57.601m.113-20.315C34.646 59.864-.085 94.778 0 137.984c.084 42.682 35.045 77.34 77.97 77.296 42.66-.043 77.466-35.103 77.36-77.922-.107-42.692-35.009-77.573-77.58-77.534"/><path d="M148.306 89.957c6.495-6.535 12.771-12.874 19.072-19.188 14.237-14.266 28.49-28.513 42.725-42.778 6.543-6.556 6.633-16.679.232-23.13-6.364-6.414-16.446-6.534-22.957-.048-20.41 20.333-40.745 40.742-61.106 61.123-.275.275-.513.586-.879 1.008 9.037 6.203 16.628 13.726 22.913 23.013M125.75 139.42c0-.54.006-1.082-.002-1.622-.058-3.648-2.559-6.273-6-6.304-3.466-.03-6.114 2.507-6.168 6.155-.066 4.377-.815 8.603-2.396 12.673-3.373 8.684-9.223 15.142-17.502 19.427-1.058.548-2.14 1.223-2.923 2.098-1.878 2.101-1.867 5.25-.175 7.49 1.78 2.356 4.77 3.106 7.625 1.751 10.142-4.813 17.637-12.347 22.621-22.369 3.05-6.134 4.73-13.027 4.92-19.299m-54.145 40.085c-.041 3.42 2.538 6.12 5.902 6.183 3.459.065 6.277-2.657 6.282-6.067.005-3.266-2.782-6.078-6.067-6.123-3.32-.045-6.077 2.664-6.117 6.007"/></g></svg>
